<svg xmlns="http://www.w3.org/2000/svg" xmlns:xlink="http://www.w3.org/1999/xlink" viewBox="0 0 100 125" version="1.1" x="0px" y="0px"><title>desktop</title><desc>Created with Sketch.</desc><g stroke="none" stroke-width="1" fill="none" fill-rule="evenodd"><path d="M60,91 L66,91 L66,93 L34,93 L34,91 L40,91 L40,79 L7,79 C5.34314575,79 4,77.6568542 4,76 L4,75 L4.17070571,75 C4.06015422,74.6872211 4,74.3506354 4,74 L4,24 C4,22.3431458 5.34314575,21 7,21 L93,21 C94.6568542,21 96,22.3431458 96,24 L96,74 C96,74.3506354 95.9398458,74.6872211 95.8292943,75 L96,75 L96,76 C96,77.6568542 94.6568542,79 93,79 L60,79 L60,91 Z M6,75 L94,75 L94,25.0740741 C94,23.9285946 93.124468,23 92.0444444,23 L7.95555556,23 C6.87553204,23 6,23.9285946 6,25.0740741 L6,75 Z" fill="#fff" fill-rule="nonzero"/></g></svg>
