<svg xmlns="http://www.w3.org/2000/svg" xmlns:xlink="http://www.w3.org/1999/xlink" version="1.1" x="0px" y="0px" viewBox="0 0 64 80" enable-background="new 0 0 64 64" xml:space="preserve"><path d="M55.2,21.6H8.8c-2.6,0-4.8,2.1-4.8,4.8v11.3c0,2.6,2.1,4.8,4.8,4.8h46.4c2.6,0,4.8-2.1,4.8-4.8V26.3  C60,23.7,57.9,21.6,55.2,21.6z M42.5,26.6h4.6c0.6,0,1,0.4,1,1s-0.4,1-1,1h-4.6c-0.6,0-1-0.4-1-1S42,26.6,42.5,26.6z M43.8,32  c0,0.6-0.4,1-1,1h-4.6c-0.6,0-1-0.4-1-1s0.4-1,1-1h4.6C43.4,31,43.8,31.4,43.8,32z M34,26.6h4.6c0.6,0,1,0.4,1,1s-0.4,1-1,1H34  c-0.6,0-1-0.4-1-1S33.4,26.6,34,26.6z M35.3,32c0,0.6-0.4,1-1,1h-4.6c-0.6,0-1-0.4-1-1s0.4-1,1-1h4.6C34.8,31,35.3,31.4,35.3,32z   M25.4,26.6H30c0.6,0,1,0.4,1,1s-0.4,1-1,1h-4.6c-0.6,0-1-0.4-1-1S24.9,26.6,25.4,26.6z M26.7,32c0,0.6-0.4,1-1,1h-4.6  c-0.6,0-1-0.4-1-1s0.4-1,1-1h4.6C26.3,31,26.7,31.4,26.7,32z M16.9,26.6h4.6c0.6,0,1,0.4,1,1s-0.4,1-1,1h-4.6c-0.6,0-1-0.4-1-1  S16.3,26.6,16.9,26.6z M8.4,28.6c-0.6,0-1-0.4-1-1s0.4-1,1-1h4.6c0.6,0,1,0.4,1,1s-0.4,1-1,1H8.4z M11.6,32c0-0.6,0.4-1,1-1h4.6  c0.6,0,1,0.4,1,1s-0.4,1-1,1h-4.6C12.1,33,11.6,32.6,11.6,32z M47.1,37.4h-2.3h-2.3h-4H34h-4h-4.6h-8.5c-0.6,0-1-0.4-1-1s0.4-1,1-1  h8.5H30h4h4.6h4h2.3h2.3c0.6,0,1,0.4,1,1S47.7,37.4,47.1,37.4z M51.4,33h-4.6c-0.6,0-1-0.4-1-1s0.4-1,1-1h4.6c0.6,0,1,0.4,1,1  S51.9,33,51.4,33z M55.6,28.6h-4.6c-0.6,0-1-0.4-1-1s0.4-1,1-1h4.6c0.6,0,1,0.4,1,1S56.2,28.6,55.6,28.6z"/><text x="0" y="79" fill="#000000" font-size="5px" font-weight="bold" font-family="'Helvetica Neue', Helvetica, Arial-Unicode, Arial, Sans-serif">Created by ahmad</text><text x="0" y="84" fill="#000000" font-size="5px" font-weight="bold" font-family="'Helvetica Neue', Helvetica, Arial-Unicode, Arial, Sans-serif">from the Noun Project</text></svg>