<svg xmlns="http://www.w3.org/2000/svg" data-name="Layer 1" viewBox="0 0 96 120" x="0px" y="0px"><title>Artboard 141</title><path d="M75.2041,4.79639A16.26767,16.26767,0,0,0,63.625,0H32.375A16.37506,16.37506,0,0,0,16,16.375V67.5A28.50069,28.50069,0,0,0,44.5,96h7A28.50069,28.50069,0,0,0,80,67.5V16.375A16.26726,16.26726,0,0,0,75.2041,4.79639ZM50,29a2,2,0,0,1-4,0V13a2,2,0,0,1,4,0Z"/><text x="0" y="111" fill="#000000" font-size="5px" font-weight="bold" font-family="'Helvetica Neue', Helvetica, Arial-Unicode, Arial, Sans-serif">Created by Adi Kurniawan</text><text x="0" y="116" fill="#000000" font-size="5px" font-weight="bold" font-family="'Helvetica Neue', Helvetica, Arial-Unicode, Arial, Sans-serif">from the Noun Project</text></svg>