<svg xmlns="http://www.w3.org/2000/svg" xmlns:xlink="http://www.w3.org/1999/xlink" version="1.1" x="0px" y="0px" viewBox="0 0 95 118.75" enable-background="new 0 0 95 95" xml:space="preserve"><g><path d="M61.607,57.876h-1.814c-0.825,0-1.5-0.675-1.5-1.5V38.624c0-0.825,0.675-1.5,1.5-1.5h1.814c0.825,0,1.5,0.675,1.5,1.5   v17.752C63.107,57.201,62.433,57.876,61.607,57.876z"/><path d="M70.407,62.358h-1.813c-0.825,0-1.5-0.675-1.5-1.5V34.142c0-0.825,0.675-1.5,1.5-1.5h1.813c0.825,0,1.5,0.675,1.5,1.5   v26.717C71.907,61.684,71.232,62.358,70.407,62.358z"/><path d="M79.208,73.813h-1.814c-0.826,0-1.5-0.675-1.5-1.5V22.687c0-0.825,0.674-1.5,1.5-1.5h1.814c0.824,0,1.5,0.675,1.5,1.5   v49.627C80.708,73.139,80.032,73.813,79.208,73.813z"/><path d="M88.007,60.117h-1.813c-0.826,0-1.5-0.675-1.5-1.5V36.382c0-0.825,0.674-1.5,1.5-1.5h1.813c0.826,0,1.5,0.675,1.5,1.5   v22.235C89.507,59.442,88.833,60.117,88.007,60.117z"/><path d="M8.807,80.288H6.992c-0.825,0-1.5-0.675-1.5-1.5V16.212c0-0.825,0.675-1.5,1.5-1.5h1.814c0.825,0,1.5,0.675,1.5,1.5v62.576   C10.307,79.613,9.632,80.288,8.807,80.288z"/><path d="M17.606,66.343h-1.814c-0.825,0-1.5-0.675-1.5-1.5V30.157c0-0.825,0.675-1.5,1.5-1.5h1.814c0.826,0,1.5,0.675,1.5,1.5   v34.686C19.106,65.668,18.433,66.343,17.606,66.343z"/><path d="M26.407,62.109h-1.814c-0.825,0-1.5-0.675-1.5-1.5V34.391c0-0.825,0.675-1.5,1.5-1.5h1.814c0.824,0,1.5,0.675,1.5,1.5   v26.219C27.907,61.435,27.231,62.109,26.407,62.109z"/><path d="M35.207,73.813h-1.814c-0.825,0-1.5-0.675-1.5-1.5V22.687c0-0.825,0.675-1.5,1.5-1.5h1.814c0.825,0,1.5,0.675,1.5,1.5   v49.627C36.707,73.139,36.032,73.813,35.207,73.813z"/><path d="M44.007,60.366h-1.814c-0.824,0-1.5-0.675-1.5-1.5V36.133c0-0.825,0.676-1.5,1.5-1.5h1.814c0.825,0,1.5,0.675,1.5,1.5   v22.733C45.507,59.691,44.832,60.366,44.007,60.366z"/><path d="M52.808,55.884h-1.814c-0.826,0-1.5-0.675-1.5-1.5V40.616c0-0.825,0.674-1.5,1.5-1.5h1.814c0.824,0,1.5,0.675,1.5,1.5   v13.768C54.308,55.209,53.632,55.884,52.808,55.884z"/></g><text x="0" y="110" fill="#000000" font-size="5px" font-weight="bold" font-family="'Helvetica Neue', Helvetica, Arial-Unicode, Arial, Sans-serif">Created by Guilherme Furtado</text><text x="0" y="115" fill="#000000" font-size="5px" font-weight="bold" font-family="'Helvetica Neue', Helvetica, Arial-Unicode, Arial, Sans-serif">from the Noun Project</text></svg>