<svg xmlns="http://www.w3.org/2000/svg" xmlns:xlink="http://www.w3.org/1999/xlink" viewBox="0 0 90 112.5" version="1.1" x="0px" y="0px"><title>Group</title><desc>Created with Sketch.</desc><g stroke="none" stroke-width="1" fill="none" fill-rule="evenodd"><g><g><rect x="0" y="0" width="90" height="90"/><g fill="#000000"><path d="M18.8017817,36.7924528 C12.0668148,36.7924528 2.15144764,30.2830189 0.654788419,26.8867925 C4.06737817e-10,25.2830189 -0.280623601,12.8301887 0.654788419,9.71698113 C2.52561246,7.64150943 9.54120363,-6.2382245e-10 19.2694884,0 C28.9977732,6.23822522e-10 33.3006678,6.32075472 34.3296214,8.01886792 C35.358575,9.71698113 40.2227168,18.3962264 41.064588,26.7924528 C41.9064592,35.1886792 41.9064588,60.1886792 41.9064588,60.1886792 L41.9064588,85.1787039 C41.9064588,87.9419647 39.6702395,90.1820302 36.9008844,90.1820301 L32.6002295,90.18203 C29.8357271,90.1820299 27.5946551,87.939699 27.5946551,85.1845287 L27.5946545,33.8679245 C27.5946545,33.8679245 25.5367486,36.7924528 18.8017817,36.7924528 Z M1.40311804,26.7924528 C1.66142494,26.7924528 1.87082405,23.0755715 1.87082405,18.490566 C1.87082405,13.9055606 1.66142494,10.1886792 1.40311804,10.1886792 C1.14481114,10.1886792 0.935412027,13.9055606 0.935412027,18.490566 C0.935412027,23.0755715 1.14481114,26.7924528 1.40311804,26.7924528 L1.40311804,26.7924528 L1.40311804,26.7924528 L1.40311804,26.7924528 L1.40311804,26.7924528 L1.40311804,26.7924528 L1.40311804,26.7924528 L1.40311804,26.7924528 L1.40311804,26.7924528 L1.40311804,26.7924528 L1.40311804,26.7924528 L1.40311804,26.7924528 L1.40311804,26.7924528 Z M38.8197077,28.4175703 C39.2239673,28.3316423 39.4638683,27.8488408 39.3555414,27.3392031 C39.2472146,26.8295654 38.8316811,26.4860808 38.4274215,26.5720088 C38.0231619,26.6579369 37.7832609,27.1407383 37.8915878,27.6503761 C37.9999146,28.1600138 38.4154481,28.5034984 38.8197077,28.4175703 L38.8197077,28.4175703 L38.8197077,28.4175703 L38.8197077,28.4175703 L38.8197077,28.4175703 L38.8197077,28.4175703 L38.8197077,28.4175703 L38.8197077,28.4175703 L38.8197077,28.4175703 L38.8197077,28.4175703 L38.8197077,28.4175703 L38.8197077,28.4175703 L38.8197077,28.4175703 Z M10.8507795,20.5660377 C11.9873299,20.5660377 12.908686,19.6368174 12.908686,18.490566 C12.908686,17.3443147 11.9873299,16.4150943 10.8507795,16.4150943 C9.71422916,16.4150943 8.79287305,17.3443147 8.79287305,18.490566 C8.79287305,19.6368174 9.71422916,20.5660377 10.8507795,20.5660377 L10.8507795,20.5660377 L10.8507795,20.5660377 L10.8507795,20.5660377 L10.8507795,20.5660377 L10.8507795,20.5660377 L10.8507795,20.5660377 L10.8507795,20.5660377 L10.8507795,20.5660377 L10.8507795,20.5660377 L10.8507795,20.5660377 L10.8507795,20.5660377 L10.8507795,20.5660377 Z M27.0379706,4.04636454 C27.785876,3.69429486 29.6930176,4.31044042 30.2160181,5.09448364 L33.1124928,8.6759448 C33.6731353,9.33565963 33.7738278,9.95210673 33.0172015,10.3739409 C32.2568202,10.8276177 30.6100194,10.0913422 30.0665455,9.47404139 L27.3376107,5.80234319 C26.81769,4.98876205 26.2859787,4.43045401 27.0379706,4.04636454 L27.0379706,4.04636454 L27.0379706,4.04636454 L27.0379706,4.04636454 L27.0379706,4.04636454 L27.0379706,4.04636454 L27.0379706,4.04636454 L27.0379706,4.04636454 L27.0379706,4.04636454 L27.0379706,4.04636454 L27.0379706,4.04636454 L27.0379706,4.04636454 L27.0379706,4.04636454 Z"/><path d="M66.7478913,36.7924528 C60.0129244,36.7924528 50.0975572,30.2830189 48.600898,26.8867925 C47.9461095,25.2830189 47.6654859,12.8301887 48.600898,9.71698113 C50.471722,7.64150943 57.4873132,-6.2382245e-10 67.2155979,0 C76.9438827,6.23822522e-10 81.2467773,6.32075472 82.2757309,8.01886792 C83.3046845,9.71698113 88.1688263,18.3962264 89.0106975,26.7924528 C89.8525687,35.1886792 89.8525683,60.1886792 89.8525683,60.1886792 L89.8525683,85.1787039 C89.8525683,87.9419647 87.616349,90.1820302 84.8469939,90.1820301 L80.5463391,90.18203 C77.7818367,90.1820299 75.5407647,87.939699 75.5407646,85.1845287 L75.540764,33.8679245 C75.540764,33.8679245 73.4828582,36.7924528 66.7478913,36.7924528 Z M49.3492276,26.7924528 C49.6075345,26.7924528 49.8169336,23.0755715 49.8169336,18.490566 C49.8169336,13.9055606 49.6075345,10.1886792 49.3492276,10.1886792 C49.0909207,10.1886792 48.8815216,13.9055606 48.8815216,18.490566 C48.8815216,23.0755715 49.0909207,26.7924528 49.3492276,26.7924528 L49.3492276,26.7924528 L49.3492276,26.7924528 L49.3492276,26.7924528 L49.3492276,26.7924528 L49.3492276,26.7924528 L49.3492276,26.7924528 L49.3492276,26.7924528 L49.3492276,26.7924528 L49.3492276,26.7924528 L49.3492276,26.7924528 L49.3492276,26.7924528 L49.3492276,26.7924528 Z M86.7658172,28.4175703 C87.1700769,28.3316423 87.4099778,27.8488408 87.301651,27.3392031 C87.1933241,26.8295654 86.7777907,26.4860808 86.373531,26.5720088 C85.9692714,26.6579369 85.7293705,27.1407383 85.8376973,27.6503761 C85.9460242,28.1600138 86.3615576,28.5034984 86.7658172,28.4175703 L86.7658172,28.4175703 L86.7658172,28.4175703 L86.7658172,28.4175703 L86.7658172,28.4175703 L86.7658172,28.4175703 L86.7658172,28.4175703 L86.7658172,28.4175703 L86.7658172,28.4175703 L86.7658172,28.4175703 L86.7658172,28.4175703 L86.7658172,28.4175703 L86.7658172,28.4175703 Z M58.7968891,20.5660377 C59.9334394,20.5660377 60.8547955,19.6368174 60.8547955,18.490566 C60.8547955,17.3443147 59.9334394,16.4150943 58.7968891,16.4150943 C57.6603387,16.4150943 56.7389826,17.3443147 56.7389826,18.490566 C56.7389826,19.6368174 57.6603387,20.5660377 58.7968891,20.5660377 L58.7968891,20.5660377 L58.7968891,20.5660377 L58.7968891,20.5660377 L58.7968891,20.5660377 L58.7968891,20.5660377 L58.7968891,20.5660377 L58.7968891,20.5660377 L58.7968891,20.5660377 L58.7968891,20.5660377 L58.7968891,20.5660377 L58.7968891,20.5660377 L58.7968891,20.5660377 Z M74.9840801,4.04636454 C75.7319856,3.69429486 77.6391271,4.31044042 78.1621276,5.09448364 L81.0586023,8.6759448 C81.6192449,9.33565963 81.7199374,9.95210673 80.963311,10.3739409 C80.2029298,10.8276177 78.5561289,10.0913422 78.012655,9.47404139 L75.2837203,5.80234319 C74.7637995,4.98876205 74.2320882,4.43045401 74.9840801,4.04636454 L74.9840801,4.04636454 L74.9840801,4.04636454 L74.9840801,4.04636454 L74.9840801,4.04636454 L74.9840801,4.04636454 L74.9840801,4.04636454 L74.9840801,4.04636454 L74.9840801,4.04636454 L74.9840801,4.04636454 L74.9840801,4.04636454 L74.9840801,4.04636454 L74.9840801,4.04636454 Z" transform="translate(68.926284, 45.091015) scale(-1, 1) translate(-68.926284, -45.091015) "/></g></g></g></g><text x="0" y="105" fill="#000000" font-size="5px" font-weight="bold" font-family="'Helvetica Neue', Helvetica, Arial-Unicode, Arial, Sans-serif">Created by Allen Wang</text><text x="0" y="110" fill="#000000" font-size="5px" font-weight="bold" font-family="'Helvetica Neue', Helvetica, Arial-Unicode, Arial, Sans-serif">from the Noun Project</text></svg>